<?xml version="1.0" standalone="no"?>
<!DOCTYPE svg PUBLIC "-//W3C//DTD SVG 20010904//EN"
 "http://www.w3.org/TR/2001/REC-SVG-20010904/DTD/svg10.dtd">
<svg version="1.0" xmlns="http://www.w3.org/2000/svg"
 width="180.000000pt" height="180.000000pt" viewBox="0 0 180.000000 180.000000"
 preserveAspectRatio="xMidYMid meet">
<metadata>
Created by potrace 1.11, written by Peter Selinger 2001-2013
</metadata>
<g transform="translate(0.000000,180.000000) scale(0.100000,-0.100000)"
fill="#000000" stroke="none">
<path d="M877 1628 c-9 -13 -64 -120 -123 -239 l-107 -216 -256 -37 c-140 -21
-259 -40 -263 -42 -26 -16 8 -57 177 -222 l186 -179 -44 -257 c-39 -226 -43
-259 -30 -272 15 -14 84 18 431 203 l52 28 53 -28 c346 -185 415 -217 430
-203 13 13 9 46 -30 272 l-44 257 186 179 c169 165 203 206 177 222 -4 2 -122
21 -263 42 l-256 37 -119 236 c-65 129 -124 237 -131 239 -6 2 -18 -7 -26 -20z"/>
</g>
</svg>
