<?xml version="1.0" standalone="no"?>
<!DOCTYPE svg PUBLIC "-//W3C//DTD SVG 20010904//EN"
 "http://www.w3.org/TR/2001/REC-SVG-20010904/DTD/svg10.dtd">
<svg version="1.0" xmlns="http://www.w3.org/2000/svg"
 width="700.000000pt" height="700.000000pt" viewBox="0 0 700.000000 700.000000"
 preserveAspectRatio="xMidYMid meet">
<metadata>
Created by potrace 1.11, written by Peter Selinger 2001-2013
</metadata>
<g transform="translate(0.000000,700.000000) scale(0.100000,-0.100000)"
fill="#000000" stroke="none">
<path d="M3464 6399 c-33 -9 -52 -27 -77 -74 -9 -16 -149 -298 -310 -625 -161
-327 -353 -717 -427 -866 l-133 -272 -91 -12 c-50 -7 -100 -14 -111 -16 -10
-2 -37 -6 -60 -9 -81 -11 -191 -26 -215 -30 -14 -3 -72 -11 -130 -20 -58 -9
-116 -17 -130 -20 -14 -2 -50 -7 -80 -10 -30 -4 -57 -8 -60 -10 -3 -1 -32 -6
-65 -9 -33 -4 -100 -13 -150 -21 -49 -8 -108 -16 -130 -19 -22 -3 -119 -17
-215 -31 -96 -15 -186 -28 -200 -30 -64 -9 -120 -17 -175 -25 -33 -5 -80 -12
-105 -15 -65 -8 -82 -14 -112 -43 -31 -29 -44 -78 -32 -116 13 -36 18 -40 764
-765 626 -608 689 -672 684 -694 -2 -12 -7 -38 -10 -57 -2 -19 -9 -55 -14 -80
-8 -38 -29 -158 -56 -329 -3 -18 -8 -43 -10 -55 -2 -11 -7 -37 -10 -56 -2 -19
-8 -48 -11 -65 -3 -16 -7 -39 -8 -50 -2 -11 -8 -49 -15 -85 -7 -36 -13 -74
-15 -85 -1 -11 -5 -33 -8 -50 -4 -16 -9 -46 -12 -65 -3 -19 -7 -46 -10 -60 -3
-14 -7 -38 -9 -55 -3 -16 -12 -73 -21 -125 -10 -52 -19 -108 -22 -125 -2 -16
-10 -66 -18 -110 -8 -44 -16 -93 -19 -110 -2 -16 -12 -69 -20 -118 -9 -48 -19
-104 -22 -123 -3 -20 -7 -46 -10 -58 -21 -110 -6 -168 50 -195 57 -27 88 -16
316 107 25 13 101 53 170 89 69 36 148 78 175 93 28 15 118 62 200 105 83 43
184 96 225 118 41 21 122 64 180 95 58 30 132 69 165 87 33 18 145 76 249 130
l189 98 66 -35 c95 -51 200 -107 326 -173 61 -32 146 -77 190 -100 44 -23 134
-71 200 -105 66 -34 161 -84 210 -110 50 -26 144 -76 210 -110 66 -35 149 -79
185 -98 262 -141 395 -204 426 -204 44 0 81 24 101 67 14 29 14 44 5 102 -15
84 -21 119 -27 158 -3 17 -7 39 -9 51 -2 12 -7 45 -11 75 -4 30 -8 56 -10 59
-2 3 -11 50 -20 105 -9 55 -18 111 -21 125 -2 14 -10 63 -18 110 -8 47 -17 99
-20 115 -2 17 -9 55 -15 85 -5 30 -12 71 -15 90 -3 19 -8 45 -10 56 -2 12 -7
39 -10 60 -4 22 -10 62 -16 89 -5 28 -12 66 -14 85 -3 19 -8 46 -10 60 -11 56
-76 438 -82 475 -3 22 -10 58 -15 80 l-9 40 214 210 c232 228 759 742 890 868
342 330 366 358 352 422 -3 11 -5 23 -5 27 -1 4 -13 18 -28 32 -29 27 -48 32
-218 56 -44 6 -91 13 -105 15 -14 3 -42 7 -62 10 -21 3 -55 7 -75 10 -21 3
-69 10 -108 16 -38 5 -81 11 -95 14 -14 2 -61 9 -105 15 -103 15 -134 19 -165
25 -14 2 -50 7 -80 10 -30 3 -62 8 -70 10 -16 4 -70 12 -136 20 -22 3 -50 7
-64 10 -14 2 -43 7 -65 10 -22 3 -119 16 -215 31 -96 14 -193 28 -215 30 -22
3 -51 7 -65 10 -14 2 -58 9 -98 14 -40 5 -78 12 -83 16 -5 3 -56 101 -113 217
-137 280 -719 1457 -755 1527 -42 81 -88 107 -157 89z"/>
</g>
</svg>
