<svg version="1.1" xmlns="http://www.w3.org/2000/svg">
  <defs>
    <symbol id="star" viewBox="0 0 60 60">
      <path d="M55.8499641,25.0487289L43.650013,36.9387436l2.8800049,16.789978   c0.0699463,0.3800049-0.0900269,0.7600098-0.4000244,0.9800415c-0.1699829,0.1300049-0.3800049,0.1900024-0.5800171,0.1900024   c-0.1599731,0-0.3200073-0.0400391-0.4699707-0.1100464l-15.080019-7.9299927l-15.0800171,7.9299927   c-0.3299561,0.1700439-0.7399902,0.1400146-1.0499878-0.0799561c-0.3099976-0.2200317-0.4599609-0.6000366-0.3999634-0.9800415   l2.8799438-16.789978L4.1500111,25.0487289c-0.2700195-0.2699585-0.3699951-0.6599731-0.25-1.0299683   c0.1199951-0.3599854,0.4299927-0.6199951,0.8099976-0.6799927l16.8599854-2.4500122l7.539978-15.2700195   c0.3300171-0.6900024,1.4500122-0.6900024,1.7900391,0l7.5399799,15.2700195l16.8599854,2.4500122   c0.3699951,0.0599976,0.6900024,0.3200073,0.7999878,0.6799927C56.2200203,24.3887558,56.1199837,24.7787704,55.8499641,25.0487289   z"/>
    </symbol>
    <symbol id="heart" viewBox="0 0 512 512" preserveAspectRatio="xMaxYMax meet">
      <path d="M377.594 32c-53.815 0-100.129 43.777-121.582 89.5-21.469-45.722-67.789-89.5-121.608-89.5-74.191 0-134.404 60.22-134.404 134.416 0 150.923 152.25 190.497 256.011 339.709 98.077-148.288 255.989-193.603 255.989-339.709 0-74.196-60.215-134.416-134.406-134.416z"></path>
    </symbol>

    <symbol id="bytemark" viewBox="0 0 512.254 66.05">
      <path d="M51.898,50.314h11.93c4.254,0,7.958-1.193,7.958-6.281c0-3.883-2.314-6.014-7.127-6.014H51.894v12.295
         M51.898,25.715h10.73c4.25,0,6.935-1.199,6.935-5.452c0-3.326-2.78-4.529-6.935-4.529h-10.73V25.715z M31.551,0h36.162
        c17.392,0,21.09,9.815,21.09,16.56c0,6.667-3.238,10.265-8.144,12.954c5.923,2.035,11.472,6.747,11.472,16.466
        c0,13.217-11.472,20.066-23.12,20.066h-37.46V0z"/>
      <polygon points="104.822,41.719 81.601,0 104.078,0 115.086,24.331 126.557,0 148.846,0 125.171,41.719
        125.171,66.047 104.822,66.047     "/>
      <polygon points="157.541,16.938 139.043,16.938 139.043,0 196.388,0 196.388,16.938 177.891,16.938
        177.891,66.047 157.541,66.047     "/>
      <polygon points="194.626,0 249.293,0 249.293,16.938 214.973,16.938 214.973,25.163 246.146,25.163
        246.146,40.887 214.973,40.887 214.973,49.121 250.307,49.121 250.307,66.047 194.626,66.047     "/>
      <polygon points="249.109,0 278.061,0 287.497,38.848 287.682,38.848 297.115,0 326.064,0 326.064,66.047
        306.832,66.047 306.832,23.683 306.641,23.683 295.171,66.047 280.001,66.047 268.533,23.683 268.352,23.683 268.352,66.047
        249.109,66.047    "/>
      <path d="M361.58,42.457l-5.912-20.339h-0.189l-6.384,20.339H361.58z M345.576,0h19.89l24.05,66.047H368.43
        l-2.781-9.434H344.66l-2.959,9.434h-20.444L345.576,0z"/>
      <path d="M405.146,28.865h10.634c3.792,0,8.979-0.646,8.979-6.565c0-4.163-2.314-6.566-10.088-6.566h-9.524
        L405.146,28.865 M384.794,0h38.759c11.562,0,21.55,6.389,21.55,18.88c0,6.835-3.15,14.052-9.895,16.554
        c5.544,2.125,8.965,8.229,9.708,16.463c0.278,3.229,0.372,11.096,2.221,14.15h-20.353c-1.018-3.328-1.38-6.754-1.662-10.175
        c-0.559-6.29-1.111-12.856-9.156-12.856h-10.82V66.05h-20.352V0z"/>
      <polygon points="444.636,0 464.988,0 464.988,22.755 465.176,22.755 483.292,0 508.363,0 484.41,25.812
        512.254,66.047 486.906,66.047 470.628,40.334 464.988,46.537 464.988,66.047 444.636,66.047     "/>
      <rect y="8.652" width="20.23" height="19.252"/>
      <rect y="39.874" width="20.23" height="19.247"/>
    </symbol>
  </defs>
</svg>