<svg version="1.1" xmlns="http://www.w3.org/2000/svg">
  <defs>
    <symbol id="home" viewBox="0 0 32 32">
      <path d="M32 19l-6-6v-9h-4v5l-6-6-16 16v1h4v10h10v-6h4v6h10v-10h4z"></path>
    </symbol>
    <symbol id="person" viewBox="0 0 100 100" preserveAspectRatio="xMaxYMax meet">
      <path d="M24.3,44.9c0.6,2,1.6,5.8,4,8c1.8,6.6,7,14.3,15.4,17.3c2,0.7,4.1,1.1,6.3,1.1c2.1,0,4.2-0.4,6.2-1.1   c8.4-3,13.6-10.6,15.4-17.3c2.4-2.2,3.4-6,4-8c0.9-3.2,1.8-7.7-0.6-10.9c-0.1-0.1-0.2-0.2-0.3-0.4c0.2-1.1,0.3-2.2,0.4-3.2   c2.8-18.8-7.6-20-8.8-20c-0.1,0-0.1-0.1-0.2-0.1c-1.2-4.9-8.2-10-14.8-8.7C44.8,3,31.1,1.4,31.1,1.4c-0.2,2.9,2.3,4.9,2.3,4.9   c-11.5,7-9.4,22-8.3,27.3c-0.1,0.1-0.2,0.2-0.3,0.4C22.5,37.2,23.4,41.7,24.3,44.9z M30.3,36.1c0.1,0,0.2,0,0.3,0c0,0,0-0.1,0-0.1   c-0.3-1-1.7-6.7,3.2-10.1c4,0.9,10,1.1,18.2-2.4c15.7-6.7,17.1,12.7,17.1,12.7v0c0.1,0,0.2,0,0.3,0c1.6,0,3.3,1.3,1.5,7.5   c-1.4,4.9-2.7,6.3-3.6,6.3c-0.9,5.8-5.4,13.2-12.8,15.8c-1.5,0.5-3.1,0.8-4.7,0.8c-1.6,0-3.2-0.3-4.7-0.8   c-7.3-2.6-11.9-10-12.8-15.8c-1-0.1-2.3-1.4-3.6-6.3C27,37.3,28.7,36.1,30.3,36.1z"/>
      <path d="M70.1,66.1c-3,3.7-7.1,6.9-12.3,8.7c-2.5,0.9-5.1,1.3-7.8,1.3c-2.7,0-5.4-0.5-7.9-1.4c-5.2-1.9-9.2-5.1-12.2-8.7h0   c-4.3,2.3-11.8,6.5-19.6,12.2C19.2,90.6,33.7,98.6,50,98.6s30.8-8,39.7-20.3C81.9,72.6,74.5,68.4,70.1,66.1z"/>
    </symbol>
    <symbol id="folder" viewBox="0 0 1024 1024" preserveAspectRatio="xMaxYMax meet">
      <path d="M864 928h-736c-35.36 0-64-28.672-64-64v-384c0 0 167.072 85.92 320 121.088v38.912c0 17.696 14.304 32 32 32h160c17.664 0 32-14.304 32-32v-38.912c152.896-35.168 320-121.088 320-121.088v384c0 35.328-28.672 64-64 64zM544 544c17.664 0 32 14.304 32 32v32c0 17.696-14.336 32-32 32h-96c-17.696 0-32-14.304-32-32v-32c0-17.696 14.304-32 32-32h96zM608 544c0-17.696-14.336-32-32-32h-160c-17.696 0-32 14.304-32 32v28.672c-152.928-36.224-320-124.672-320-124.672v-128c0-35.328 28.64-64 64-64h192v-64c0-35.328 28.672-64 64-64h224c35.328 0 64 28.672 64 64v64h192c35.328 0 64 28.672 64 64v128c0 0-167.104 88.448-320 124.672v-28.672zM608 224c0-17.696-14.336-32-32-32h-160c-17.696 0-32 14.304-32 32 0 17.664 0 32 0 32h224c0 0 0-14.336 0-32z"></path>
    </symbol>
    <symbol id="book" viewBox="0 0 100 100" preserveAspectRatio="xMaxYMax meet">
      <g transform="translate(0,-952.36218)"><path style="color:#000000;enable-background:accumulate;" d="m 18,966.3622 0,58 c 12.793163,-0.069 22.32638,6.9097 30,13.3125 l 0,-59.31252 C 39.508362,971.24463 29.963324,966.3513 18,966.3622 z m 64,0 c -11.963324,-0.0109 -21.508362,4.88243 -30,11.99998 l 0,59.31252 c 7.67362,-6.4027 17.206837,-13.3814 30,-13.3125 z m -74,8 0,58 35,6 c -6.651752,-5.0153 -15.042675,-10.054 -25,-10 l -2,0 c -1.047169,-10e-5 -1.999895,-0.9529 -2,-2 l 0,-2 0,-49.15625 z m 84,0 -6,0.84375 0,49.15625 0,2 c -1.05e-4,1.0472 -0.952831,1.9999 -2,2 l -2,0 c -9.957325,-0.054 -18.348248,4.9847 -25,10 l 35,-6 z" fill="#000000" stroke="none" marker="none" visibility="visible" display="inline" overflow="visible"/></g>
    </symbol>
    <symbol id="chat" viewBox="0 0 100 100" preserveAspectRatio="xMaxYMax meet">
      <path fill-rule="evenodd" clip-rule="evenodd" d="M79.2,5.2H20.8C9.3,5.2,0,14.5,0,26v29.1C0,66.7,9.3,76,20.9,76  c2.9,0,5.2,2.3,5.2,5.2v9.5c0,3.7,4.5,5.5,7.1,2.9l15.2-15.1c1.6-1.6,3.7-2.4,5.9-2.4h24.9c11.5,0,20.8-9.3,20.8-20.8V26  C100,14.5,90.7,5.2,79.2,5.2z M29.2,46.8c-3.4,0-6.3-2.8-6.3-6.2s2.8-6.2,6.3-6.2c3.4,0,6.2,2.8,6.2,6.2S32.6,46.8,29.2,46.8z   M50,46.8c-3.4,0-6.3-2.8-6.3-6.2s2.8-6.2,6.3-6.2c3.4,0,6.2,2.8,6.2,6.2S53.4,46.8,50,46.8z M70.8,46.8c-3.4,0-6.3-2.8-6.3-6.2  s2.8-6.2,6.3-6.2c3.4,0,6.2,2.8,6.2,6.2S74.3,46.8,70.8,46.8z"/>
    </symbol>
  </defs>
</svg>