<svg version="1.1" xmlns="http://www.w3.org/2000/svg">
  <defs>
    <symbol id="star" viewBox="0 0 60 60">
      <path d="M55.8499641,25.0487289L43.650013,36.9387436l2.8800049,16.789978   c0.0699463,0.3800049-0.0900269,0.7600098-0.4000244,0.9800415c-0.1699829,0.1300049-0.3800049,0.1900024-0.5800171,0.1900024   c-0.1599731,0-0.3200073-0.0400391-0.4699707-0.1100464l-15.080019-7.9299927l-15.0800171,7.9299927   c-0.3299561,0.1700439-0.7399902,0.1400146-1.0499878-0.0799561c-0.3099976-0.2200317-0.4599609-0.6000366-0.3999634-0.9800415   l2.8799438-16.789978L4.1500111,25.0487289c-0.2700195-0.2699585-0.3699951-0.6599731-0.25-1.0299683   c0.1199951-0.3599854,0.4299927-0.6199951,0.8099976-0.6799927l16.8599854-2.4500122l7.539978-15.2700195   c0.3300171-0.6900024,1.4500122-0.6900024,1.7900391,0l7.5399799,15.2700195l16.8599854,2.4500122   c0.3699951,0.0599976,0.6900024,0.3200073,0.7999878,0.6799927C56.2200203,24.3887558,56.1199837,24.7787704,55.8499641,25.0487289   z"/>
    </symbol>
  </defs>
</svg>