<svg version="1.1" xmlns="http://www.w3.org/2000/svg">
  <defs>
    <symbol id="star" viewBox="0 0 60 60">
      <path d="M55.8499641,25.0487289L43.650013,36.9387436l2.8800049,16.789978   c0.0699463,0.3800049-0.0900269,0.7600098-0.4000244,0.9800415c-0.1699829,0.1300049-0.3800049,0.1900024-0.5800171,0.1900024   c-0.1599731,0-0.3200073-0.0400391-0.4699707-0.1100464l-15.080019-7.9299927l-15.0800171,7.9299927   c-0.3299561,0.1700439-0.7399902,0.1400146-1.0499878-0.0799561c-0.3099976-0.2200317-0.4599609-0.6000366-0.3999634-0.9800415   l2.8799438-16.789978L4.1500111,25.0487289c-0.2700195-0.2699585-0.3699951-0.6599731-0.25-1.0299683   c0.1199951-0.3599854,0.4299927-0.6199951,0.8099976-0.6799927l16.8599854-2.4500122l7.539978-15.2700195   c0.3300171-0.6900024,1.4500122-0.6900024,1.7900391,0l7.5399799,15.2700195l16.8599854,2.4500122   c0.3699951,0.0599976,0.6900024,0.3200073,0.7999878,0.6799927C56.2200203,24.3887558,56.1199837,24.7787704,55.8499641,25.0487289   z"/>
    </symbol>
    <symbol id="person" viewBox="0 0 100 100" preserveAspectRatio="xMaxYMax meet">
      <path d="M24.3,44.9c0.6,2,1.6,5.8,4,8c1.8,6.6,7,14.3,15.4,17.3c2,0.7,4.1,1.1,6.3,1.1c2.1,0,4.2-0.4,6.2-1.1   c8.4-3,13.6-10.6,15.4-17.3c2.4-2.2,3.4-6,4-8c0.9-3.2,1.8-7.7-0.6-10.9c-0.1-0.1-0.2-0.2-0.3-0.4c0.2-1.1,0.3-2.2,0.4-3.2   c2.8-18.8-7.6-20-8.8-20c-0.1,0-0.1-0.1-0.2-0.1c-1.2-4.9-8.2-10-14.8-8.7C44.8,3,31.1,1.4,31.1,1.4c-0.2,2.9,2.3,4.9,2.3,4.9   c-11.5,7-9.4,22-8.3,27.3c-0.1,0.1-0.2,0.2-0.3,0.4C22.5,37.2,23.4,41.7,24.3,44.9z M30.3,36.1c0.1,0,0.2,0,0.3,0c0,0,0-0.1,0-0.1   c-0.3-1-1.7-6.7,3.2-10.1c4,0.9,10,1.1,18.2-2.4c15.7-6.7,17.1,12.7,17.1,12.7v0c0.1,0,0.2,0,0.3,0c1.6,0,3.3,1.3,1.5,7.5   c-1.4,4.9-2.7,6.3-3.6,6.3c-0.9,5.8-5.4,13.2-12.8,15.8c-1.5,0.5-3.1,0.8-4.7,0.8c-1.6,0-3.2-0.3-4.7-0.8   c-7.3-2.6-11.9-10-12.8-15.8c-1-0.1-2.3-1.4-3.6-6.3C27,37.3,28.7,36.1,30.3,36.1z"/>
      <path d="M70.1,66.1c-3,3.7-7.1,6.9-12.3,8.7c-2.5,0.9-5.1,1.3-7.8,1.3c-2.7,0-5.4-0.5-7.9-1.4c-5.2-1.9-9.2-5.1-12.2-8.7h0   c-4.3,2.3-11.8,6.5-19.6,12.2C19.2,90.6,33.7,98.6,50,98.6s30.8-8,39.7-20.3C81.9,72.6,74.5,68.4,70.1,66.1z"/>
    </symbol>
    <symbol id="folder" viewBox="0 0 100 100" preserveAspectRatio="xMaxYMax meet">
      <polygon points="17.1982422,43.9541016 20.668457,43.9541016 20.668457,29.2890625 79.2192383,29.2890625 79.2192383,43.9541016   82.3540039,43.9541016 82.3540039,25.8183594 17.1982422,25.8183594 "/><polygon points="20.7807617,23.0195313 23.8032227,23.0195313 23.8032227,20.109375 75.0771484,20.109375 75.0771484,23.0195313   78.4355469,23.0195313 78.4355469,16.6386719 41,16.6386719 20.7807617,16.6386719 "/><rect x="24.6992188" y="9.25" width="50.3779297" height="3.8056641"/><path d="M86.3842773,36.4541016v10.6347656H13.6157227V36.4541016L6.7866211,47.0888672V90.75h86.4267578V47.0888672  L86.3842773,36.4541016z M64.5463867,60.9702148H34.6699219c-2.0263672,0-3.6694336-1.6430664-3.6694336-3.6699219  c0-2.0263672,1.6430664-3.6694336,3.6694336-3.6694336h29.8764648c2.0263672,0,3.6694336,1.6430664,3.6694336,3.6694336  C68.2158203,59.3271484,66.5727539,60.9702148,64.5463867,60.9702148z"/>
    </symbol>
    <symbol id="book" viewBox="0 0 100 100" preserveAspectRatio="xMaxYMax meet">
      <g transform="translate(0,-952.36218)"><path d="m 18,966.3622 0,58 c 12.793163,-0.069 22.32638,6.9097 30,13.3125 l 0,-59.31252 C 39.508362,971.24463 29.963324,966.3513 18,966.3622 z m 64,0 c -11.963324,-0.0109 -21.508362,4.88243 -30,11.99998 l 0,59.31252 c 7.67362,-6.4027 17.206837,-13.3814 30,-13.3125 z m -74,8 0,58 35,6 c -6.651752,-5.0153 -15.042675,-10.054 -25,-10 l -2,0 c -1.047169,-10e-5 -1.999895,-0.9529 -2,-2 l 0,-2 0,-49.15625 z m 84,0 -6,0.84375 0,49.15625 0,2 c -1.05e-4,1.0472 -0.952831,1.9999 -2,2 l -2,0 c -9.957325,-0.054 -18.348248,4.9847 -25,10 l 35,-6 z" stroke="none" marker="none" visibility="visible" display="inline" overflow="visible"/></g>
    </symbol>
    <symbol id="talk" viewBox="0 0 100 100" preserveAspectRatio="xMaxYMax meet">
      <path fill-rule="evenodd" clip-rule="evenodd" d="M79.2,5.2H20.8C9.3,5.2,0,14.5,0,26v29.1C0,66.7,9.3,76,20.9,76  c2.9,0,5.2,2.3,5.2,5.2v9.5c0,3.7,4.5,5.5,7.1,2.9l15.2-15.1c1.6-1.6,3.7-2.4,5.9-2.4h24.9c11.5,0,20.8-9.3,20.8-20.8V26  C100,14.5,90.7,5.2,79.2,5.2z M29.2,46.8c-3.4,0-6.3-2.8-6.3-6.2s2.8-6.2,6.3-6.2c3.4,0,6.2,2.8,6.2,6.2S32.6,46.8,29.2,46.8z   M50,46.8c-3.4,0-6.3-2.8-6.3-6.2s2.8-6.2,6.3-6.2c3.4,0,6.2,2.8,6.2,6.2S53.4,46.8,50,46.8z M70.8,46.8c-3.4,0-6.3-2.8-6.3-6.2  s2.8-6.2,6.3-6.2c3.4,0,6.2,2.8,6.2,6.2S74.3,46.8,70.8,46.8z"/>
    </symbol>
    <symbol id="chat" viewBox="0 0 1100 1024" preserveAspectRatio="xMaxYMax meet">
      <path d="M804.224 421.28c0-165.28-180.064-299.264-402.112-299.264-222.080 0-402.112 133.984-402.112 299.264 0 99.328 65.024 187.328 165.12 241.76-0.288 0.864-79.744 145.44-79.744 145.44s242.624-92.544 243.296-92.928c23.808 3.296 48.352 4.96 73.44 4.96 222.048 0 402.112-133.984 402.112-299.232zM1100.32 514.784c0-165.248-169.504-298.048-352.992-299.232 263.040 262.016-46.752 541.184-299.232 541.184 0 0 28.064 57.28 250.112 57.28 25.056 0 49.632-1.728 73.44-4.992 0.672 0.448 243.328 92.928 243.328 92.928s-79.488-144.544-79.744-145.408c100.064-54.432 165.088-142.464 165.088-241.76z"></path>
    </symbol>
    <symbol id="notes" viewBox="0 0 14 16" preserveAspectRatio="xMaxYMax meet">
      <path fill-rule="evenodd" clip-rule="evenodd" d="M3,0v16h9c1.1,0,2-0.9,2-2V2c0-1.1-0.9-2-2-2v5l-2-2L8,5V0H3z M2,0  C0.9,0,0,0.9,0,2v12c0,1.1,0.9,2,2,2V0z"/>
    </symbol>

    <symbol id="notebook" viewBox="0 0 100 100" preserveAspectRatio="xMaxYMax meet">
      <path d="M75.349,14.619c-0.624-0.923-1.681-1.53-2.877-1.53c-0.003,0-0.004,0-0.006,0h-5.931v73.379h5.937   c1.915,0,3.469-1.554,3.469-3.47V16.56v0C75.94,15.841,75.723,15.173,75.349,14.619z"/><polygon points="24.059,86.469 28.819,86.469 28.819,92.582 31.986,92.582 31.986,86.469 63.292,86.469 63.292,13.09 24.059,13.09     "/>
    </symbol>

    <symbol id="heart" viewBox="0 0 512 512" preserveAspectRatio="xMaxYMax meet">
      <path d="M377.594 32c-53.815 0-100.129 43.777-121.582 89.5-21.469-45.722-67.789-89.5-121.608-89.5-74.191 0-134.404 60.22-134.404 134.416 0 150.923 152.25 190.497 256.011 339.709 98.077-148.288 255.989-193.603 255.989-339.709 0-74.196-60.215-134.416-134.406-134.416z"></path>
    </symbol>
  </defs>
</svg>